<mxfile host="Electron" agent="Mozilla/5.0 (Windows NT 10.0; Win64; x64) AppleWebKit/537.36 (KHTML, like Gecko) draw.io/24.7.5 Chrome/126.0.6478.183 Electron/31.3.0 Safari/537.36" version="24.7.5">
  <diagram name="Page-1" id="L2I-KhSRGWFbni1Gmckt">
    <mxGraphModel dx="2590" dy="1515" grid="1" gridSize="10" guides="1" tooltips="1" connect="1" arrows="1" fold="1" page="1" pageScale="1" pageWidth="1169" pageHeight="827" math="0" shadow="0">
      <root>
        <mxCell id="0" />
        <mxCell id="1" parent="0" />
        <mxCell id="qu2iDUBuxxzFe1pc3vkn-232" value="" style="rounded=0;whiteSpace=wrap;html=1;fillColor=none;strokeWidth=3;" parent="1" vertex="1">
          <mxGeometry x="200" y="20" width="1520" height="800" as="geometry" />
        </mxCell>
        <mxCell id="qu2iDUBuxxzFe1pc3vkn-231" value="" style="endArrow=classic;html=1;rounded=0;entryX=-0.023;entryY=0.081;entryDx=0;entryDy=0;entryPerimeter=0;fillColor=#d5e8d4;strokeColor=#82b366;strokeWidth=2;dashed=1;dashPattern=1 1;" parent="1" target="qu2iDUBuxxzFe1pc3vkn-191" edge="1">
          <mxGeometry width="50" height="50" relative="1" as="geometry">
            <mxPoint x="810" y="130" as="sourcePoint" />
            <mxPoint x="860" y="130" as="targetPoint" />
          </mxGeometry>
        </mxCell>
        <mxCell id="qu2iDUBuxxzFe1pc3vkn-198" value="" style="group" parent="1" vertex="1" connectable="0">
          <mxGeometry x="1198" y="80" width="40" height="620" as="geometry" />
        </mxCell>
        <mxCell id="qu2iDUBuxxzFe1pc3vkn-199" value="MA" style="rounded=0;whiteSpace=wrap;html=1;fontStyle=1;fontSize=20;fillColor=#dae8fc;strokeColor=#6c8ebf;strokeWidth=2;" parent="qu2iDUBuxxzFe1pc3vkn-198" vertex="1">
          <mxGeometry width="40" height="620.0000000000001" as="geometry" />
        </mxCell>
        <mxCell id="qu2iDUBuxxzFe1pc3vkn-96" value="" style="triangle;whiteSpace=wrap;html=1;fillColor=#dae8fc;strokeColor=#6c8ebf;strokeWidth=2;" parent="qu2iDUBuxxzFe1pc3vkn-198" vertex="1">
          <mxGeometry y="540" width="20" height="40" as="geometry" />
        </mxCell>
        <mxCell id="qu2iDUBuxxzFe1pc3vkn-10" value="&lt;font style=&quot;font-size: 20px;&quot;&gt;&lt;b&gt;REGS&lt;/b&gt;&lt;/font&gt;&lt;div style=&quot;font-size: 20px;&quot;&gt;&lt;font style=&quot;font-size: 20px;&quot;&gt;&lt;b&gt;32X32&lt;/b&gt;&lt;/font&gt;&lt;/div&gt;" style="rounded=0;whiteSpace=wrap;html=1;strokeWidth=2;" parent="1" vertex="1">
          <mxGeometry x="720" y="260" width="120" height="140" as="geometry" />
        </mxCell>
        <mxCell id="qu2iDUBuxxzFe1pc3vkn-13" value="&lt;b style=&quot;font-size: 20px;&quot;&gt;&lt;font style=&quot;font-size: 20px;&quot;&gt;Branch&lt;/font&gt;&lt;/b&gt;&lt;div style=&quot;font-size: 20px;&quot;&gt;&lt;b&gt;Compare&lt;/b&gt;&lt;/div&gt;&lt;div style=&quot;font-size: 20px;&quot;&gt;&lt;b&gt;Unit&lt;/b&gt;&lt;/div&gt;" style="rounded=0;whiteSpace=wrap;html=1;strokeWidth=2;" parent="1" vertex="1">
          <mxGeometry x="720" y="520" width="120" height="140" as="geometry" />
        </mxCell>
        <mxCell id="qu2iDUBuxxzFe1pc3vkn-15" value="&lt;font style=&quot;font-size: 13px;&quot;&gt;&lt;b&gt;CONTROLLER&lt;/b&gt;&lt;/font&gt;" style="ellipse;whiteSpace=wrap;html=1;strokeWidth=2;fillColor=#d5e8d4;strokeColor=#82b366;" parent="1" vertex="1">
          <mxGeometry x="720" y="80" width="100" height="140" as="geometry" />
        </mxCell>
        <mxCell id="qu2iDUBuxxzFe1pc3vkn-18" value="" style="endArrow=classic;html=1;rounded=0;exitX=1;exitY=0.457;exitDx=0;exitDy=0;entryX=0;entryY=0.5;entryDx=0;entryDy=0;strokeWidth=3;exitPerimeter=0;" parent="1" target="qu2iDUBuxxzFe1pc3vkn-15" edge="1">
          <mxGeometry width="50" height="50" relative="1" as="geometry">
            <mxPoint x="620" y="450.22" as="sourcePoint" />
            <mxPoint x="680" y="240" as="targetPoint" />
            <Array as="points">
              <mxPoint x="640" y="450" />
              <mxPoint x="640" y="150" />
            </Array>
          </mxGeometry>
        </mxCell>
        <mxCell id="qu2iDUBuxxzFe1pc3vkn-21" value="&lt;font style=&quot;font-size: 20px;&quot;&gt;&lt;b&gt;&amp;nbsp; &amp;nbsp; &amp;nbsp; Immediate&lt;/b&gt;&lt;/font&gt;&lt;div style=&quot;font-size: 20px;&quot;&gt;&lt;font style=&quot;font-size: 20px;&quot;&gt;&lt;b&gt;&amp;nbsp; &amp;nbsp; &amp;nbsp;Generator&lt;/b&gt;&lt;/font&gt;&lt;/div&gt;" style="shape=card;whiteSpace=wrap;html=1;size=40;strokeWidth=2;" parent="1" vertex="1">
          <mxGeometry x="690" y="430" width="150" height="60" as="geometry" />
        </mxCell>
        <mxCell id="qu2iDUBuxxzFe1pc3vkn-29" style="edgeStyle=orthogonalEdgeStyle;rounded=0;orthogonalLoop=1;jettySize=auto;html=1;entryX=0;entryY=0.25;entryDx=0;entryDy=0;strokeWidth=2;" parent="1" source="qu2iDUBuxxzFe1pc3vkn-22" target="qu2iDUBuxxzFe1pc3vkn-13" edge="1">
          <mxGeometry relative="1" as="geometry" />
        </mxCell>
        <mxCell id="qu2iDUBuxxzFe1pc3vkn-22" value="" style="shape=trapezoid;perimeter=trapezoidPerimeter;whiteSpace=wrap;html=1;fixedSize=1;rotation=90;strokeWidth=2;" parent="1" vertex="1">
          <mxGeometry x="655" y="545" width="60" height="20" as="geometry" />
        </mxCell>
        <mxCell id="qu2iDUBuxxzFe1pc3vkn-30" style="edgeStyle=orthogonalEdgeStyle;rounded=0;orthogonalLoop=1;jettySize=auto;html=1;entryX=0;entryY=0.75;entryDx=0;entryDy=0;strokeWidth=2;" parent="1" source="qu2iDUBuxxzFe1pc3vkn-23" target="qu2iDUBuxxzFe1pc3vkn-13" edge="1">
          <mxGeometry relative="1" as="geometry" />
        </mxCell>
        <mxCell id="qu2iDUBuxxzFe1pc3vkn-23" value="" style="shape=trapezoid;perimeter=trapezoidPerimeter;whiteSpace=wrap;html=1;fixedSize=1;rotation=90;size=15;strokeWidth=2;" parent="1" vertex="1">
          <mxGeometry x="657.5" y="615" width="55" height="20" as="geometry" />
        </mxCell>
        <mxCell id="qu2iDUBuxxzFe1pc3vkn-31" value="" style="endArrow=classic;html=1;rounded=0;exitX=1;exitY=0.5;exitDx=0;exitDy=0;dashed=1;dashPattern=1 1;strokeWidth=2;fillColor=#d5e8d4;strokeColor=#82b366;" parent="1" source="qu2iDUBuxxzFe1pc3vkn-13" edge="1">
          <mxGeometry width="50" height="50" relative="1" as="geometry">
            <mxPoint x="780" y="470" as="sourcePoint" />
            <mxPoint x="880" y="520" as="targetPoint" />
            <Array as="points">
              <mxPoint x="880" y="590" />
            </Array>
          </mxGeometry>
        </mxCell>
        <mxCell id="qu2iDUBuxxzFe1pc3vkn-32" value="" style="shape=trapezoid;perimeter=trapezoidPerimeter;whiteSpace=wrap;html=1;fixedSize=1;rotation=90;strokeWidth=2;" parent="1" vertex="1">
          <mxGeometry x="1053.4" y="355" width="145" height="90" as="geometry" />
        </mxCell>
        <mxCell id="qu2iDUBuxxzFe1pc3vkn-34" style="edgeStyle=orthogonalEdgeStyle;rounded=0;orthogonalLoop=1;jettySize=auto;html=1;entryX=0.25;entryY=1;entryDx=0;entryDy=0;strokeWidth=2;" parent="1" source="qu2iDUBuxxzFe1pc3vkn-33" target="qu2iDUBuxxzFe1pc3vkn-32" edge="1">
          <mxGeometry relative="1" as="geometry" />
        </mxCell>
        <mxCell id="qu2iDUBuxxzFe1pc3vkn-33" value="" style="shape=trapezoid;perimeter=trapezoidPerimeter;whiteSpace=wrap;html=1;fixedSize=1;rotation=90;strokeWidth=2;" parent="1" vertex="1">
          <mxGeometry x="1010.4" y="354" width="60" height="20" as="geometry" />
        </mxCell>
        <mxCell id="qu2iDUBuxxzFe1pc3vkn-36" style="edgeStyle=orthogonalEdgeStyle;rounded=0;orthogonalLoop=1;jettySize=auto;html=1;entryX=0.75;entryY=1;entryDx=0;entryDy=0;strokeWidth=2;" parent="1" source="qu2iDUBuxxzFe1pc3vkn-35" target="qu2iDUBuxxzFe1pc3vkn-32" edge="1">
          <mxGeometry relative="1" as="geometry" />
        </mxCell>
        <mxCell id="qu2iDUBuxxzFe1pc3vkn-35" value="" style="shape=trapezoid;perimeter=trapezoidPerimeter;whiteSpace=wrap;html=1;fixedSize=1;rotation=90;strokeWidth=2;" parent="1" vertex="1">
          <mxGeometry x="1010.4" y="426" width="60" height="20" as="geometry" />
        </mxCell>
        <mxCell id="qu2iDUBuxxzFe1pc3vkn-38" style="edgeStyle=orthogonalEdgeStyle;rounded=0;orthogonalLoop=1;jettySize=auto;html=1;entryX=0.75;entryY=1;entryDx=0;entryDy=0;strokeWidth=2;" parent="1" source="qu2iDUBuxxzFe1pc3vkn-37" target="qu2iDUBuxxzFe1pc3vkn-33" edge="1">
          <mxGeometry relative="1" as="geometry" />
        </mxCell>
        <mxCell id="qu2iDUBuxxzFe1pc3vkn-37" value="" style="shape=trapezoid;perimeter=trapezoidPerimeter;whiteSpace=wrap;html=1;fixedSize=1;rotation=90;strokeWidth=2;" parent="1" vertex="1">
          <mxGeometry x="955.4" y="369" width="70" height="20" as="geometry" />
        </mxCell>
        <mxCell id="qu2iDUBuxxzFe1pc3vkn-41" style="edgeStyle=orthogonalEdgeStyle;rounded=0;orthogonalLoop=1;jettySize=auto;html=1;entryX=0.75;entryY=1;entryDx=0;entryDy=0;strokeWidth=2;" parent="1" source="qu2iDUBuxxzFe1pc3vkn-39" target="qu2iDUBuxxzFe1pc3vkn-35" edge="1">
          <mxGeometry relative="1" as="geometry" />
        </mxCell>
        <mxCell id="qu2iDUBuxxzFe1pc3vkn-39" value="" style="shape=trapezoid;perimeter=trapezoidPerimeter;whiteSpace=wrap;html=1;fixedSize=1;rotation=90;strokeWidth=2;" parent="1" vertex="1">
          <mxGeometry x="955.4" y="441" width="70" height="20" as="geometry" />
        </mxCell>
        <mxCell id="qu2iDUBuxxzFe1pc3vkn-42" value="" style="endArrow=classic;html=1;rounded=0;entryX=0.25;entryY=1;entryDx=0;entryDy=0;dashed=1;dashPattern=1 1;strokeWidth=2;" parent="1" target="qu2iDUBuxxzFe1pc3vkn-35" edge="1">
          <mxGeometry width="50" height="50" relative="1" as="geometry">
            <mxPoint x="1010" y="400" as="sourcePoint" />
            <mxPoint x="1040.4" y="387" as="targetPoint" />
            <Array as="points">
              <mxPoint x="1010" y="400" />
              <mxPoint x="1010.4" y="421" />
            </Array>
          </mxGeometry>
        </mxCell>
        <mxCell id="qu2iDUBuxxzFe1pc3vkn-43" value="" style="endArrow=classic;html=1;rounded=0;entryX=0.75;entryY=1;entryDx=0;entryDy=0;dashed=1;dashPattern=1 1;strokeWidth=2;" parent="1" edge="1">
          <mxGeometry width="50" height="50" relative="1" as="geometry">
            <mxPoint x="980" y="310" as="sourcePoint" />
            <mxPoint x="1030.4000000000003" y="349" as="targetPoint" />
            <Array as="points">
              <mxPoint x="1010" y="310" />
              <mxPoint x="1010.4" y="349" />
            </Array>
          </mxGeometry>
        </mxCell>
        <mxCell id="qu2iDUBuxxzFe1pc3vkn-45" value="" style="endArrow=classic;html=1;rounded=0;entryX=0.25;entryY=1;entryDx=0;entryDy=0;exitX=1.001;exitY=0.233;exitDx=0;exitDy=0;exitPerimeter=0;strokeWidth=2;" parent="1" target="qu2iDUBuxxzFe1pc3vkn-37" edge="1">
          <mxGeometry width="50" height="50" relative="1" as="geometry">
            <mxPoint x="940.4399999999999" y="361.55999999999995" as="sourcePoint" />
            <mxPoint x="960.4" y="357" as="targetPoint" />
          </mxGeometry>
        </mxCell>
        <mxCell id="qu2iDUBuxxzFe1pc3vkn-46" value="" style="endArrow=classic;html=1;rounded=0;entryX=0.5;entryY=1;entryDx=0;entryDy=0;dashed=1;dashPattern=1 1;strokeWidth=2;" parent="1" target="qu2iDUBuxxzFe1pc3vkn-37" edge="1">
          <mxGeometry width="50" height="50" relative="1" as="geometry">
            <mxPoint x="960.4" y="367" as="sourcePoint" />
            <mxPoint x="980.4" y="367" as="targetPoint" />
            <Array as="points">
              <mxPoint x="960.4" y="379" />
            </Array>
          </mxGeometry>
        </mxCell>
        <mxCell id="qu2iDUBuxxzFe1pc3vkn-47" value="" style="endArrow=classic;html=1;rounded=0;entryX=0.75;entryY=1;entryDx=0;entryDy=0;dashed=1;dashPattern=1 1;strokeWidth=2;" parent="1" target="qu2iDUBuxxzFe1pc3vkn-37" edge="1">
          <mxGeometry width="50" height="50" relative="1" as="geometry">
            <mxPoint x="960" y="420" as="sourcePoint" />
            <mxPoint x="960.4" y="417" as="targetPoint" />
            <Array as="points">
              <mxPoint x="960" y="397" />
            </Array>
          </mxGeometry>
        </mxCell>
        <mxCell id="qu2iDUBuxxzFe1pc3vkn-48" value="" style="endArrow=classic;html=1;rounded=0;entryX=0.5;entryY=1;entryDx=0;entryDy=0;dashed=1;dashPattern=1 2;strokeWidth=2;" parent="1" edge="1">
          <mxGeometry width="50" height="50" relative="1" as="geometry">
            <mxPoint x="960.4" y="436" as="sourcePoint" />
            <mxPoint x="980.4" y="448" as="targetPoint" />
            <Array as="points">
              <mxPoint x="960.4" y="448" />
            </Array>
          </mxGeometry>
        </mxCell>
        <mxCell id="qu2iDUBuxxzFe1pc3vkn-49" value="" style="endArrow=classic;html=1;rounded=0;entryX=0.75;entryY=1;entryDx=0;entryDy=0;dashed=1;dashPattern=1 1;strokeWidth=2;" parent="1" edge="1">
          <mxGeometry width="50" height="50" relative="1" as="geometry">
            <mxPoint x="960" y="490" as="sourcePoint" />
            <mxPoint x="980.4" y="466" as="targetPoint" />
            <Array as="points">
              <mxPoint x="960" y="466" />
            </Array>
          </mxGeometry>
        </mxCell>
        <mxCell id="qu2iDUBuxxzFe1pc3vkn-51" value="" style="endArrow=classic;html=1;rounded=0;entryX=0.25;entryY=1;entryDx=0;entryDy=0;exitX=0.99;exitY=0.458;exitDx=0;exitDy=0;exitPerimeter=0;strokeWidth=2;" parent="1" target="qu2iDUBuxxzFe1pc3vkn-39" edge="1">
          <mxGeometry width="50" height="50" relative="1" as="geometry">
            <mxPoint x="940.0000000000003" y="433.55999999999995" as="sourcePoint" />
            <mxPoint x="980.4" y="426" as="targetPoint" />
          </mxGeometry>
        </mxCell>
        <mxCell id="qu2iDUBuxxzFe1pc3vkn-55" value="" style="shape=trapezoid;perimeter=trapezoidPerimeter;whiteSpace=wrap;html=1;fixedSize=1;rotation=90;strokeWidth=2;" parent="1" vertex="1">
          <mxGeometry x="1278" y="355" width="145" height="90" as="geometry" />
        </mxCell>
        <mxCell id="qu2iDUBuxxzFe1pc3vkn-58" value="" style="endArrow=classic;html=1;rounded=0;exitX=0.25;exitY=0;exitDx=0;exitDy=0;entryX=0;entryY=0.5;entryDx=0;entryDy=0;strokeWidth=2;" parent="1" source="qu2iDUBuxxzFe1pc3vkn-55" edge="1">
          <mxGeometry width="50" height="50" relative="1" as="geometry">
            <mxPoint x="1378" y="420" as="sourcePoint" />
            <mxPoint x="1428" y="364" as="targetPoint" />
          </mxGeometry>
        </mxCell>
        <mxCell id="qu2iDUBuxxzFe1pc3vkn-59" value="" style="endArrow=classic;html=1;rounded=0;exitX=0.75;exitY=0;exitDx=0;exitDy=0;entryX=0.759;entryY=-0.023;entryDx=0;entryDy=0;strokeWidth=2;entryPerimeter=0;" parent="1" source="qu2iDUBuxxzFe1pc3vkn-55" target="qu2iDUBuxxzFe1pc3vkn-84" edge="1">
          <mxGeometry width="50" height="50" relative="1" as="geometry">
            <mxPoint x="1330" y="470" as="sourcePoint" />
            <mxPoint x="1400" y="780" as="targetPoint" />
            <Array as="points">
              <mxPoint x="1520" y="436" />
            </Array>
          </mxGeometry>
        </mxCell>
        <mxCell id="qu2iDUBuxxzFe1pc3vkn-64" value="" style="shape=trapezoid;perimeter=trapezoidPerimeter;whiteSpace=wrap;html=1;fixedSize=1;rotation=90;strokeWidth=2;" parent="1" vertex="1">
          <mxGeometry x="1620.63" y="389.13" width="78.75" height="20" as="geometry" />
        </mxCell>
        <mxCell id="qu2iDUBuxxzFe1pc3vkn-69" style="edgeStyle=orthogonalEdgeStyle;rounded=0;orthogonalLoop=1;jettySize=auto;html=1;entryX=0.511;entryY=0.986;entryDx=0;entryDy=0;entryPerimeter=0;strokeWidth=2;" parent="1" edge="1">
          <mxGeometry relative="1" as="geometry">
            <mxPoint x="1600" y="379" as="sourcePoint" />
            <mxPoint x="1650" y="379" as="targetPoint" />
          </mxGeometry>
        </mxCell>
        <mxCell id="qu2iDUBuxxzFe1pc3vkn-70" style="edgeStyle=orthogonalEdgeStyle;rounded=0;orthogonalLoop=1;jettySize=auto;html=1;entryX=0.511;entryY=0.986;entryDx=0;entryDy=0;entryPerimeter=0;strokeWidth=2;dashed=1;dashPattern=1 1;" parent="1" edge="1">
          <mxGeometry relative="1" as="geometry">
            <mxPoint x="1600" y="420" as="sourcePoint" />
            <mxPoint x="1650" y="420" as="targetPoint" />
            <Array as="points">
              <mxPoint x="1620" y="420" />
              <mxPoint x="1620" y="420" />
            </Array>
          </mxGeometry>
        </mxCell>
        <mxCell id="qu2iDUBuxxzFe1pc3vkn-74" value="" style="endArrow=classic;html=1;rounded=0;entryX=1;entryY=0.5;entryDx=0;entryDy=0;strokeWidth=2;dashed=1;dashPattern=1 1;fillColor=#f8cecc;strokeColor=#b85450;fontStyle=1" parent="1" target="qu2iDUBuxxzFe1pc3vkn-23" edge="1">
          <mxGeometry width="50" height="50" relative="1" as="geometry">
            <mxPoint x="685" y="670" as="sourcePoint" />
            <mxPoint x="690" y="650" as="targetPoint" />
          </mxGeometry>
        </mxCell>
        <mxCell id="qu2iDUBuxxzFe1pc3vkn-75" value="" style="endArrow=classic;html=1;rounded=0;entryX=1;entryY=0.5;entryDx=0;entryDy=0;strokeWidth=2;dashed=1;dashPattern=1 1;fillColor=#f8cecc;strokeColor=#b85450;" parent="1" target="qu2iDUBuxxzFe1pc3vkn-22" edge="1">
          <mxGeometry width="50" height="50" relative="1" as="geometry">
            <mxPoint x="685" y="600" as="sourcePoint" />
            <mxPoint x="684.83" y="580" as="targetPoint" />
          </mxGeometry>
        </mxCell>
        <mxCell id="qu2iDUBuxxzFe1pc3vkn-76" value="" style="endArrow=classic;html=1;rounded=0;entryX=1;entryY=0.5;entryDx=0;entryDy=0;dashed=1;dashPattern=1 1;strokeWidth=2;fillColor=#f8cecc;strokeColor=#b85450;" parent="1" source="qu2iDUBuxxzFe1pc3vkn-39" target="qu2iDUBuxxzFe1pc3vkn-37" edge="1">
          <mxGeometry width="50" height="50" relative="1" as="geometry">
            <mxPoint x="990.4" y="417" as="sourcePoint" />
            <mxPoint x="1000.4" y="437" as="targetPoint" />
          </mxGeometry>
        </mxCell>
        <mxCell id="qu2iDUBuxxzFe1pc3vkn-77" value="" style="endArrow=classic;html=1;rounded=0;entryX=1;entryY=0.5;entryDx=0;entryDy=0;dashed=1;dashPattern=1 1;strokeWidth=2;fillColor=#f8cecc;strokeColor=#b85450;" parent="1" target="qu2iDUBuxxzFe1pc3vkn-39" edge="1">
          <mxGeometry width="50" height="50" relative="1" as="geometry">
            <mxPoint x="990" y="520" as="sourcePoint" />
            <mxPoint x="1010.4" y="447" as="targetPoint" />
          </mxGeometry>
        </mxCell>
        <mxCell id="qu2iDUBuxxzFe1pc3vkn-80" value="" style="endArrow=classic;html=1;rounded=0;entryX=0;entryY=0.5;entryDx=0;entryDy=0;dashed=1;dashPattern=1 1;strokeWidth=2;fillColor=#d5e8d4;strokeColor=#82b366;" parent="1" target="qu2iDUBuxxzFe1pc3vkn-33" edge="1">
          <mxGeometry width="50" height="50" relative="1" as="geometry">
            <mxPoint x="1040" y="280" as="sourcePoint" />
            <mxPoint x="1040.4" y="307" as="targetPoint" />
          </mxGeometry>
        </mxCell>
        <mxCell id="qu2iDUBuxxzFe1pc3vkn-81" value="" style="endArrow=classic;html=1;rounded=0;entryX=0;entryY=0.5;entryDx=0;entryDy=0;dashed=1;dashPattern=1 1;strokeWidth=2;fillColor=#d5e8d4;strokeColor=#82b366;" parent="1" target="qu2iDUBuxxzFe1pc3vkn-35" edge="1">
          <mxGeometry width="50" height="50" relative="1" as="geometry">
            <mxPoint x="1040" y="390" as="sourcePoint" />
            <mxPoint x="1040.4" y="337" as="targetPoint" />
          </mxGeometry>
        </mxCell>
        <mxCell id="qu2iDUBuxxzFe1pc3vkn-84" value="&lt;font style=&quot;font-size: 20px;&quot;&gt;&lt;b&gt;MMIO Interface&lt;/b&gt;&lt;/font&gt;" style="rounded=1;whiteSpace=wrap;html=1;strokeWidth=2;" parent="1" vertex="1">
          <mxGeometry x="1300" y="800" width="290" height="40" as="geometry" />
        </mxCell>
        <mxCell id="qu2iDUBuxxzFe1pc3vkn-87" value="&lt;font size=&quot;1&quot; style=&quot;&quot;&gt;&lt;b style=&quot;font-size: 27px;&quot;&gt;ALU&lt;/b&gt;&lt;/font&gt;" style="text;html=1;align=center;verticalAlign=middle;whiteSpace=wrap;rounded=0;strokeWidth=2;" parent="1" vertex="1">
          <mxGeometry x="1095.9" y="385" width="60" height="30" as="geometry" />
        </mxCell>
        <mxCell id="qu2iDUBuxxzFe1pc3vkn-88" value="&lt;span style=&quot;font-size: 26px;&quot;&gt;&lt;b&gt;MUX&lt;/b&gt;&lt;/span&gt;&lt;div&gt;&lt;span style=&quot;font-size: 26px;&quot;&gt;&lt;b&gt;DMEM&lt;/b&gt;&lt;/span&gt;&lt;/div&gt;&lt;div&gt;&lt;span style=&quot;font-size: 26px;&quot;&gt;&lt;b&gt;AXI&lt;/b&gt;&lt;/span&gt;&lt;/div&gt;" style="text;html=1;align=center;verticalAlign=middle;whiteSpace=wrap;rounded=0;strokeWidth=2;" parent="1" vertex="1">
          <mxGeometry x="1320.5" y="364" width="60" height="80" as="geometry" />
        </mxCell>
        <mxCell id="qu2iDUBuxxzFe1pc3vkn-100" value="" style="endArrow=classic;html=1;rounded=0;exitX=1;exitY=0.5;exitDx=0;exitDy=0;entryX=-0.006;entryY=0.116;entryDx=0;entryDy=0;entryPerimeter=0;strokeWidth=2;fillColor=#d5e8d4;strokeColor=#82b366;" parent="1" source="qu2iDUBuxxzFe1pc3vkn-15" edge="1">
          <mxGeometry width="50" height="50" relative="1" as="geometry">
            <mxPoint x="960" y="220" as="sourcePoint" />
            <mxPoint x="899.76" y="149.5999999999999" as="targetPoint" />
          </mxGeometry>
        </mxCell>
        <mxCell id="qu2iDUBuxxzFe1pc3vkn-103" value="" style="endArrow=classic;html=1;rounded=0;exitX=0.982;exitY=0.641;exitDx=0;exitDy=0;exitPerimeter=0;dashed=1;dashPattern=1 1;strokeWidth=2;fillColor=#d5e8d4;strokeColor=#82b366;" parent="1" source="qu2iDUBuxxzFe1pc3vkn-15" edge="1">
          <mxGeometry width="50" height="50" relative="1" as="geometry">
            <mxPoint x="820" y="175.05999999999995" as="sourcePoint" />
            <mxPoint x="860" y="200" as="targetPoint" />
            <Array as="points">
              <mxPoint x="860" y="170" />
            </Array>
          </mxGeometry>
        </mxCell>
        <mxCell id="qu2iDUBuxxzFe1pc3vkn-110" value="" style="endArrow=classic;html=1;rounded=0;exitX=1.001;exitY=0.116;exitDx=0;exitDy=0;exitPerimeter=0;entryX=0;entryY=0.5;entryDx=0;entryDy=0;strokeWidth=2;fillColor=#d5e8d4;strokeColor=#82b366;" parent="1" target="qu2iDUBuxxzFe1pc3vkn-64" edge="1">
          <mxGeometry width="50" height="50" relative="1" as="geometry">
            <mxPoint x="1600.04" y="149.60000000000002" as="sourcePoint" />
            <mxPoint x="1570" y="210" as="targetPoint" />
            <Array as="points">
              <mxPoint x="1660" y="150" />
            </Array>
          </mxGeometry>
        </mxCell>
        <mxCell id="qu2iDUBuxxzFe1pc3vkn-111" value="" style="endArrow=classic;html=1;rounded=0;exitX=1;exitY=0.5;exitDx=0;exitDy=0;entryX=-0.007;entryY=0.115;entryDx=0;entryDy=0;entryPerimeter=0;strokeWidth=2;fillColor=#d5e8d4;strokeColor=#82b366;" parent="1" edge="1">
          <mxGeometry width="50" height="50" relative="1" as="geometry">
            <mxPoint x="940" y="149.38" as="sourcePoint" />
            <mxPoint x="1197.72" y="149" as="targetPoint" />
          </mxGeometry>
        </mxCell>
        <mxCell id="qu2iDUBuxxzFe1pc3vkn-112" value="" style="endArrow=classic;html=1;rounded=0;exitX=1.01;exitY=0.082;exitDx=0;exitDy=0;exitPerimeter=0;entryX=0;entryY=0.116;entryDx=0;entryDy=0;entryPerimeter=0;strokeWidth=2;fillColor=#d5e8d4;strokeColor=#82b366;" parent="1" edge="1">
          <mxGeometry width="50" height="50" relative="1" as="geometry">
            <mxPoint x="1238" y="149.82" as="sourcePoint" />
            <mxPoint x="1560" y="149.60000000000002" as="targetPoint" />
          </mxGeometry>
        </mxCell>
        <mxCell id="qu2iDUBuxxzFe1pc3vkn-113" value="" style="endArrow=classic;html=1;rounded=0;exitX=0.982;exitY=0.641;exitDx=0;exitDy=0;exitPerimeter=0;dashed=1;dashPattern=1 1;strokeWidth=2;fillColor=#d5e8d4;strokeColor=#82b366;" parent="1" edge="1">
          <mxGeometry width="50" height="50" relative="1" as="geometry">
            <mxPoint x="940" y="170" as="sourcePoint" />
            <mxPoint x="982" y="200" as="targetPoint" />
            <Array as="points">
              <mxPoint x="982" y="170" />
            </Array>
          </mxGeometry>
        </mxCell>
        <mxCell id="qu2iDUBuxxzFe1pc3vkn-114" value="" style="endArrow=classic;html=1;rounded=0;exitX=0.982;exitY=0.641;exitDx=0;exitDy=0;exitPerimeter=0;dashed=1;dashPattern=1 1;strokeWidth=2;fillColor=#d5e8d4;strokeColor=#82b366;" parent="1" edge="1">
          <mxGeometry width="50" height="50" relative="1" as="geometry">
            <mxPoint x="1238" y="170" as="sourcePoint" />
            <mxPoint x="1280" y="200" as="targetPoint" />
            <Array as="points">
              <mxPoint x="1280" y="170" />
            </Array>
          </mxGeometry>
        </mxCell>
        <mxCell id="qu2iDUBuxxzFe1pc3vkn-116" value="" style="endArrow=classic;html=1;rounded=0;entryX=0;entryY=0;entryDx=20;entryDy=20;entryPerimeter=0;fontStyle=1;strokeWidth=3;" parent="1" target="qu2iDUBuxxzFe1pc3vkn-21" edge="1">
          <mxGeometry width="50" height="50" relative="1" as="geometry">
            <mxPoint x="630" y="450" as="sourcePoint" />
            <mxPoint x="810" y="320" as="targetPoint" />
            <Array as="points">
              <mxPoint x="640" y="450" />
            </Array>
          </mxGeometry>
        </mxCell>
        <mxCell id="qu2iDUBuxxzFe1pc3vkn-117" value="" style="endArrow=classic;html=1;rounded=0;entryX=0.5;entryY=1;entryDx=0;entryDy=0;strokeWidth=2;" parent="1" target="qu2iDUBuxxzFe1pc3vkn-55" edge="1">
          <mxGeometry width="50" height="50" relative="1" as="geometry">
            <mxPoint x="1238" y="400" as="sourcePoint" />
            <mxPoint x="1270" y="300" as="targetPoint" />
            <Array as="points">
              <mxPoint x="1250" y="400" />
            </Array>
          </mxGeometry>
        </mxCell>
        <mxCell id="qu2iDUBuxxzFe1pc3vkn-119" value="" style="endArrow=classic;html=1;rounded=0;exitX=1;exitY=0.25;exitDx=0;exitDy=0;strokeWidth=3;entryX=-0.003;entryY=0.358;entryDx=0;entryDy=0;entryPerimeter=0;" parent="1" source="qu2iDUBuxxzFe1pc3vkn-10" edge="1">
          <mxGeometry width="50" height="50" relative="1" as="geometry">
            <mxPoint x="890" y="360" as="sourcePoint" />
            <mxPoint x="899.8800000000001" y="294.8000000000002" as="targetPoint" />
            <Array as="points" />
          </mxGeometry>
        </mxCell>
        <mxCell id="qu2iDUBuxxzFe1pc3vkn-120" value="" style="endArrow=classic;html=1;rounded=0;entryX=0;entryY=0.5;entryDx=0;entryDy=0;strokeWidth=3;" parent="1" target="qu2iDUBuxxzFe1pc3vkn-10" edge="1">
          <mxGeometry width="50" height="50" relative="1" as="geometry">
            <mxPoint x="640" y="330" as="sourcePoint" />
            <mxPoint x="860" y="270" as="targetPoint" />
            <Array as="points" />
          </mxGeometry>
        </mxCell>
        <mxCell id="qu2iDUBuxxzFe1pc3vkn-122" style="edgeStyle=orthogonalEdgeStyle;rounded=0;orthogonalLoop=1;jettySize=auto;html=1;entryX=-0.029;entryY=0.633;entryDx=0;entryDy=0;entryPerimeter=0;strokeWidth=3;" parent="1" source="qu2iDUBuxxzFe1pc3vkn-21" edge="1">
          <mxGeometry relative="1" as="geometry">
            <mxPoint x="898.8399999999999" y="459.8000000000002" as="targetPoint" />
          </mxGeometry>
        </mxCell>
        <mxCell id="qu2iDUBuxxzFe1pc3vkn-123" value="" style="endArrow=classic;html=1;rounded=0;entryX=0;entryY=0.5;entryDx=0;entryDy=0;dashed=1;dashPattern=1 1;strokeWidth=2;fillColor=#d5e8d4;strokeColor=#82b366;" parent="1" target="qu2iDUBuxxzFe1pc3vkn-32" edge="1">
          <mxGeometry width="50" height="50" relative="1" as="geometry">
            <mxPoint x="1126" y="280" as="sourcePoint" />
            <mxPoint x="1050" y="354" as="targetPoint" />
          </mxGeometry>
        </mxCell>
        <mxCell id="qu2iDUBuxxzFe1pc3vkn-125" value="" style="endArrow=classic;html=1;rounded=0;entryX=0.5;entryY=0;entryDx=0;entryDy=0;strokeWidth=2;dashed=1;dashPattern=1 1;fillColor=#d5e8d4;strokeColor=#82b366;" parent="1" target="qu2iDUBuxxzFe1pc3vkn-13" edge="1">
          <mxGeometry width="50" height="50" relative="1" as="geometry">
            <mxPoint x="850" y="480" as="sourcePoint" />
            <mxPoint x="1060" y="420" as="targetPoint" />
            <Array as="points">
              <mxPoint x="850" y="500" />
              <mxPoint x="780" y="500" />
            </Array>
          </mxGeometry>
        </mxCell>
        <mxCell id="qu2iDUBuxxzFe1pc3vkn-126" value="" style="endArrow=classic;html=1;rounded=0;dashed=1;dashPattern=1 1;strokeWidth=2;entryX=0.465;entryY=0.006;entryDx=0;entryDy=0;entryPerimeter=0;fillColor=#d5e8d4;strokeColor=#82b366;" parent="1" target="qu2iDUBuxxzFe1pc3vkn-10" edge="1">
          <mxGeometry width="50" height="50" relative="1" as="geometry">
            <mxPoint x="720" y="60" as="sourcePoint" />
            <mxPoint x="870" y="210" as="targetPoint" />
            <Array as="points">
              <mxPoint x="690" y="60" />
              <mxPoint x="690" y="230" />
              <mxPoint x="776" y="230" />
            </Array>
          </mxGeometry>
        </mxCell>
        <mxCell id="qu2iDUBuxxzFe1pc3vkn-128" value="" style="endArrow=classic;html=1;rounded=0;dashed=1;dashPattern=1 1;strokeWidth=3;entryX=0;entryY=0.25;entryDx=0;entryDy=0;" parent="1" target="qu2iDUBuxxzFe1pc3vkn-10" edge="1">
          <mxGeometry width="50" height="50" relative="1" as="geometry">
            <mxPoint x="690" y="240" as="sourcePoint" />
            <mxPoint x="870" y="210" as="targetPoint" />
            <Array as="points">
              <mxPoint x="690" y="295" />
            </Array>
          </mxGeometry>
        </mxCell>
        <mxCell id="qu2iDUBuxxzFe1pc3vkn-129" value="" style="endArrow=classic;html=1;rounded=0;dashed=1;dashPattern=1 1;strokeWidth=3;entryX=0;entryY=0.25;entryDx=0;entryDy=0;" parent="1" edge="1">
          <mxGeometry width="50" height="50" relative="1" as="geometry">
            <mxPoint x="690" y="420" as="sourcePoint" />
            <mxPoint x="720.0000000000002" y="364" as="targetPoint" />
            <Array as="points">
              <mxPoint x="690" y="364" />
            </Array>
          </mxGeometry>
        </mxCell>
        <mxCell id="qu2iDUBuxxzFe1pc3vkn-132" value="" style="endArrow=classic;html=1;rounded=0;fillColor=#f8cecc;strokeColor=#b85450;strokeWidth=2;" parent="1" edge="1">
          <mxGeometry width="50" height="50" relative="1" as="geometry">
            <mxPoint x="599.57" y="740" as="sourcePoint" />
            <mxPoint x="599.57" y="700" as="targetPoint" />
          </mxGeometry>
        </mxCell>
        <mxCell id="qu2iDUBuxxzFe1pc3vkn-134" value="" style="endArrow=classic;html=1;rounded=0;fillColor=#f8cecc;strokeColor=#b85450;strokeWidth=2;" parent="1" edge="1">
          <mxGeometry width="50" height="50" relative="1" as="geometry">
            <mxPoint x="339.57" y="740" as="sourcePoint" />
            <mxPoint x="339.57" y="700" as="targetPoint" />
          </mxGeometry>
        </mxCell>
        <mxCell id="qu2iDUBuxxzFe1pc3vkn-135" value="" style="endArrow=classic;html=1;rounded=0;entryX=0.5;entryY=1;entryDx=0;entryDy=0;dashed=1;dashPattern=1 1;strokeWidth=2;" parent="1" edge="1">
          <mxGeometry width="50" height="50" relative="1" as="geometry">
            <mxPoint x="650" y="560" as="sourcePoint" />
            <mxPoint x="675.0000000000001" y="560" as="targetPoint" />
          </mxGeometry>
        </mxCell>
        <mxCell id="qu2iDUBuxxzFe1pc3vkn-136" value="" style="endArrow=classic;html=1;rounded=0;entryX=0.5;entryY=1;entryDx=0;entryDy=0;dashed=1;dashPattern=1 1;strokeWidth=2;" parent="1" edge="1">
          <mxGeometry width="50" height="50" relative="1" as="geometry">
            <mxPoint x="650" y="547" as="sourcePoint" />
            <mxPoint x="675" y="547" as="targetPoint" />
          </mxGeometry>
        </mxCell>
        <mxCell id="qu2iDUBuxxzFe1pc3vkn-137" value="" style="endArrow=classic;html=1;rounded=0;entryX=0.5;entryY=1;entryDx=0;entryDy=0;dashed=1;dashPattern=1 1;strokeWidth=2;" parent="1" edge="1">
          <mxGeometry width="50" height="50" relative="1" as="geometry">
            <mxPoint x="650" y="573" as="sourcePoint" />
            <mxPoint x="675" y="573" as="targetPoint" />
          </mxGeometry>
        </mxCell>
        <mxCell id="qu2iDUBuxxzFe1pc3vkn-138" value="" style="endArrow=classic;html=1;rounded=0;entryX=0.5;entryY=1;entryDx=0;entryDy=0;dashed=1;dashPattern=1 1;strokeWidth=2;" parent="1" edge="1">
          <mxGeometry width="50" height="50" relative="1" as="geometry">
            <mxPoint x="649" y="534" as="sourcePoint" />
            <mxPoint x="674" y="534" as="targetPoint" />
          </mxGeometry>
        </mxCell>
        <mxCell id="qu2iDUBuxxzFe1pc3vkn-139" value="" style="endArrow=classic;html=1;rounded=0;entryX=0.5;entryY=1;entryDx=0;entryDy=0;dashed=1;dashPattern=1 1;strokeWidth=2;" parent="1" edge="1">
          <mxGeometry width="50" height="50" relative="1" as="geometry">
            <mxPoint x="651" y="631.4" as="sourcePoint" />
            <mxPoint x="676.0000000000001" y="631.4" as="targetPoint" />
          </mxGeometry>
        </mxCell>
        <mxCell id="qu2iDUBuxxzFe1pc3vkn-140" value="" style="endArrow=classic;html=1;rounded=0;entryX=0.5;entryY=1;entryDx=0;entryDy=0;dashed=1;dashPattern=1 1;strokeWidth=2;" parent="1" edge="1">
          <mxGeometry width="50" height="50" relative="1" as="geometry">
            <mxPoint x="651" y="618.4" as="sourcePoint" />
            <mxPoint x="676" y="618.4" as="targetPoint" />
          </mxGeometry>
        </mxCell>
        <mxCell id="qu2iDUBuxxzFe1pc3vkn-141" value="" style="endArrow=classic;html=1;rounded=0;entryX=0.5;entryY=1;entryDx=0;entryDy=0;dashed=1;dashPattern=1 1;strokeWidth=2;fontStyle=1" parent="1" edge="1">
          <mxGeometry width="50" height="50" relative="1" as="geometry">
            <mxPoint x="651" y="644.4" as="sourcePoint" />
            <mxPoint x="676" y="644.4" as="targetPoint" />
          </mxGeometry>
        </mxCell>
        <mxCell id="qu2iDUBuxxzFe1pc3vkn-142" value="" style="endArrow=classic;html=1;rounded=0;entryX=0.5;entryY=1;entryDx=0;entryDy=0;dashed=1;dashPattern=1 1;strokeWidth=2;" parent="1" edge="1">
          <mxGeometry width="50" height="50" relative="1" as="geometry">
            <mxPoint x="650" y="605.4" as="sourcePoint" />
            <mxPoint x="675" y="605.4" as="targetPoint" />
          </mxGeometry>
        </mxCell>
        <mxCell id="qu2iDUBuxxzFe1pc3vkn-145" value="" style="endArrow=classic;html=1;rounded=0;strokeWidth=2;exitX=0.994;exitY=0.446;exitDx=0;exitDy=0;exitPerimeter=0;" parent="1" source="qu2iDUBuxxzFe1pc3vkn-144" edge="1">
          <mxGeometry width="50" height="50" relative="1" as="geometry">
            <mxPoint x="1530" y="359.86" as="sourcePoint" />
            <mxPoint x="1560" y="359.86" as="targetPoint" />
          </mxGeometry>
        </mxCell>
        <mxCell id="qu2iDUBuxxzFe1pc3vkn-147" value="" style="triangle;whiteSpace=wrap;html=1;strokeWidth=2;" parent="1" vertex="1">
          <mxGeometry x="720" y="369" width="15" height="29" as="geometry" />
        </mxCell>
        <mxCell id="qu2iDUBuxxzFe1pc3vkn-150" value="" style="group" parent="1" vertex="1" connectable="0">
          <mxGeometry x="420" y="410" width="120" height="80" as="geometry" />
        </mxCell>
        <mxCell id="qu2iDUBuxxzFe1pc3vkn-7" value="&lt;b&gt;&lt;font style=&quot;font-size: 20px;&quot;&gt;IMEM&lt;/font&gt;&lt;/b&gt;" style="rounded=0;whiteSpace=wrap;html=1;strokeWidth=2;" parent="qu2iDUBuxxzFe1pc3vkn-150" vertex="1">
          <mxGeometry width="120" height="80" as="geometry" />
        </mxCell>
        <mxCell id="qu2iDUBuxxzFe1pc3vkn-148" value="" style="triangle;whiteSpace=wrap;html=1;strokeWidth=2;" parent="qu2iDUBuxxzFe1pc3vkn-150" vertex="1">
          <mxGeometry y="46" width="15" height="29" as="geometry" />
        </mxCell>
        <mxCell id="qu2iDUBuxxzFe1pc3vkn-154" value="" style="endArrow=classic;html=1;rounded=0;strokeWidth=3;entryX=0;entryY=0.5;entryDx=0;entryDy=0;" parent="1" target="qu2iDUBuxxzFe1pc3vkn-7" edge="1">
          <mxGeometry width="50" height="50" relative="1" as="geometry">
            <mxPoint x="380" y="290" as="sourcePoint" />
            <mxPoint x="420" y="453.57" as="targetPoint" />
            <Array as="points">
              <mxPoint x="380" y="450" />
            </Array>
          </mxGeometry>
        </mxCell>
        <mxCell id="qu2iDUBuxxzFe1pc3vkn-156" value="" style="endArrow=classic;html=1;rounded=0;strokeWidth=3;" parent="1" edge="1">
          <mxGeometry width="50" height="50" relative="1" as="geometry">
            <mxPoint x="540" y="450.78" as="sourcePoint" />
            <mxPoint x="570" y="450" as="targetPoint" />
          </mxGeometry>
        </mxCell>
        <mxCell id="qu2iDUBuxxzFe1pc3vkn-157" value="" style="endArrow=classic;html=1;rounded=0;strokeWidth=3;entryX=0;entryY=0.25;entryDx=0;entryDy=0;exitX=0.988;exitY=0.108;exitDx=0;exitDy=0;exitPerimeter=0;" parent="1" target="qu2iDUBuxxzFe1pc3vkn-158" edge="1">
          <mxGeometry width="50" height="50" relative="1" as="geometry">
            <mxPoint x="359.52" y="289.67999999999995" as="sourcePoint" />
            <mxPoint x="448.05456351736996" y="283.05456351736984" as="targetPoint" />
          </mxGeometry>
        </mxCell>
        <mxCell id="qu2iDUBuxxzFe1pc3vkn-158" value="&lt;font style=&quot;font-size: 30px;&quot;&gt;+&lt;/font&gt;" style="rounded=0;whiteSpace=wrap;html=1;strokeWidth=2;" parent="1" vertex="1">
          <mxGeometry x="440" y="280" width="40" height="40" as="geometry" />
        </mxCell>
        <mxCell id="qu2iDUBuxxzFe1pc3vkn-159" value="&lt;b&gt;&lt;font style=&quot;font-size: 18px;&quot;&gt;4&lt;/font&gt;&lt;/b&gt;" style="endArrow=classic;html=1;rounded=0;strokeWidth=3;" parent="1" edge="1">
          <mxGeometry x="-1" y="-10" width="50" height="50" relative="1" as="geometry">
            <mxPoint x="410" y="310" as="sourcePoint" />
            <mxPoint x="440" y="310" as="targetPoint" />
            <mxPoint x="-10" y="-10" as="offset" />
          </mxGeometry>
        </mxCell>
        <mxCell id="qu2iDUBuxxzFe1pc3vkn-160" value="" style="endArrow=classic;html=1;rounded=0;entryX=-0.048;entryY=0.226;entryDx=0;entryDy=0;entryPerimeter=0;strokeWidth=3;" parent="1" edge="1">
          <mxGeometry width="50" height="50" relative="1" as="geometry">
            <mxPoint x="380" y="290" as="sourcePoint" />
            <mxPoint x="578.0799999999999" y="343.9599999999999" as="targetPoint" />
            <Array as="points">
              <mxPoint x="380" y="344" />
            </Array>
          </mxGeometry>
        </mxCell>
        <mxCell id="qu2iDUBuxxzFe1pc3vkn-161" value="" style="endArrow=classic;html=1;rounded=0;strokeWidth=3;entryX=-0.023;entryY=0.13;entryDx=0;entryDy=0;exitX=0.985;exitY=0.113;exitDx=0;exitDy=0;exitPerimeter=0;entryPerimeter=0;" parent="1" edge="1">
          <mxGeometry width="50" height="50" relative="1" as="geometry">
            <mxPoint x="480" y="299.88" as="sourcePoint" />
            <mxPoint x="579.0800000000002" y="299.79999999999995" as="targetPoint" />
          </mxGeometry>
        </mxCell>
        <mxCell id="qu2iDUBuxxzFe1pc3vkn-162" value="" style="endArrow=classic;html=1;rounded=0;strokeWidth=3;entryX=0.25;entryY=1;entryDx=0;entryDy=0;" parent="1" target="qu2iDUBuxxzFe1pc3vkn-163" edge="1">
          <mxGeometry width="50" height="50" relative="1" as="geometry">
            <mxPoint x="520" y="300" as="sourcePoint" />
            <mxPoint x="280" y="270" as="targetPoint" />
            <Array as="points">
              <mxPoint x="520" y="50" />
              <mxPoint x="230" y="50" />
              <mxPoint x="230" y="275" />
            </Array>
          </mxGeometry>
        </mxCell>
        <mxCell id="qu2iDUBuxxzFe1pc3vkn-165" value="" style="endArrow=classic;html=1;rounded=0;strokeWidth=2;" parent="1" edge="1">
          <mxGeometry width="50" height="50" relative="1" as="geometry">
            <mxPoint x="280" y="289.88" as="sourcePoint" />
            <mxPoint x="320" y="289.88" as="targetPoint" />
          </mxGeometry>
        </mxCell>
        <mxCell id="qu2iDUBuxxzFe1pc3vkn-166" value="" style="endArrow=classic;html=1;rounded=0;entryX=0.75;entryY=1;entryDx=0;entryDy=0;strokeWidth=3;dashed=1;dashPattern=1 1;" parent="1" target="qu2iDUBuxxzFe1pc3vkn-163" edge="1">
          <mxGeometry width="50" height="50" relative="1" as="geometry">
            <mxPoint x="230" y="380" as="sourcePoint" />
            <mxPoint x="340" y="250" as="targetPoint" />
            <Array as="points">
              <mxPoint x="230" y="305" />
            </Array>
          </mxGeometry>
        </mxCell>
        <mxCell id="qu2iDUBuxxzFe1pc3vkn-167" value="" style="endArrow=classic;html=1;rounded=0;exitX=0.5;exitY=0;exitDx=0;exitDy=0;strokeWidth=2;dashed=1;dashPattern=1 1;" parent="1" source="qu2iDUBuxxzFe1pc3vkn-32" edge="1">
          <mxGeometry width="50" height="50" relative="1" as="geometry">
            <mxPoint x="960" y="380" as="sourcePoint" />
            <mxPoint x="1120" y="530" as="targetPoint" />
            <Array as="points">
              <mxPoint x="1180" y="400" />
              <mxPoint x="1180" y="530" />
            </Array>
          </mxGeometry>
        </mxCell>
        <mxCell id="qu2iDUBuxxzFe1pc3vkn-121" value="" style="endArrow=classic;html=1;rounded=0;entryX=-0.021;entryY=0.257;entryDx=0;entryDy=0;entryPerimeter=0;exitX=0.5;exitY=0;exitDx=0;exitDy=0;strokeWidth=2;" parent="1" edge="1">
          <mxGeometry width="50" height="50" relative="1" as="geometry">
            <mxPoint x="1171.4" y="400" as="sourcePoint" />
            <mxPoint x="1197.5600000000004" y="400.0799999999999" as="targetPoint" />
          </mxGeometry>
        </mxCell>
        <mxCell id="qu2iDUBuxxzFe1pc3vkn-168" value="" style="endArrow=classic;html=1;rounded=0;exitX=0.5;exitY=0;exitDx=0;exitDy=0;strokeWidth=2;dashed=1;dashPattern=1 1;" parent="1" edge="1">
          <mxGeometry width="50" height="50" relative="1" as="geometry">
            <mxPoint x="1249" y="400" as="sourcePoint" />
            <mxPoint x="1250" y="530" as="targetPoint" />
            <Array as="points">
              <mxPoint x="1280" y="400" />
              <mxPoint x="1280" y="530" />
            </Array>
          </mxGeometry>
        </mxCell>
        <mxCell id="qu2iDUBuxxzFe1pc3vkn-175" value="" style="group" parent="1" vertex="1" connectable="0">
          <mxGeometry x="1428" y="315" width="90" height="100" as="geometry" />
        </mxCell>
        <mxCell id="qu2iDUBuxxzFe1pc3vkn-144" value="&lt;b&gt;&lt;font style=&quot;font-size: 20px;&quot;&gt;DMEM&lt;/font&gt;&lt;/b&gt;" style="rounded=0;whiteSpace=wrap;html=1;strokeWidth=2;" parent="qu2iDUBuxxzFe1pc3vkn-175" vertex="1">
          <mxGeometry width="90" height="100" as="geometry" />
        </mxCell>
        <mxCell id="qu2iDUBuxxzFe1pc3vkn-143" value="" style="triangle;whiteSpace=wrap;html=1;strokeWidth=2;" parent="qu2iDUBuxxzFe1pc3vkn-175" vertex="1">
          <mxGeometry y="65.13" width="15" height="29" as="geometry" />
        </mxCell>
        <mxCell id="qu2iDUBuxxzFe1pc3vkn-163" value="" style="shape=trapezoid;perimeter=trapezoidPerimeter;whiteSpace=wrap;html=1;fixedSize=1;rotation=90;strokeWidth=2;" parent="1" vertex="1">
          <mxGeometry x="240" y="280" width="60" height="20" as="geometry" />
        </mxCell>
        <mxCell id="qu2iDUBuxxzFe1pc3vkn-178" value="" style="endArrow=classic;html=1;rounded=0;entryX=0.122;entryY=0.5;entryDx=0;entryDy=0;entryPerimeter=0;strokeWidth=2;dashed=1;dashPattern=1 1;fillColor=#d5e8d4;strokeColor=#82b366;" parent="1" target="qu2iDUBuxxzFe1pc3vkn-163" edge="1">
          <mxGeometry width="50" height="50" relative="1" as="geometry">
            <mxPoint x="270" y="200" as="sourcePoint" />
            <mxPoint x="210" y="220" as="targetPoint" />
          </mxGeometry>
        </mxCell>
        <mxCell id="qu2iDUBuxxzFe1pc3vkn-180" value="" style="endArrow=classic;html=1;rounded=0;fillColor=#d5e8d4;strokeColor=#82b366;strokeWidth=2;dashed=1;dashPattern=1 1;" parent="1" edge="1">
          <mxGeometry width="50" height="50" relative="1" as="geometry">
            <mxPoint x="1450" y="255" as="sourcePoint" />
            <mxPoint x="1450" y="315" as="targetPoint" />
          </mxGeometry>
        </mxCell>
        <mxCell id="qu2iDUBuxxzFe1pc3vkn-181" value="" style="endArrow=classic;html=1;rounded=0;fillColor=#d5e8d4;strokeColor=#82b366;strokeWidth=2;dashed=1;dashPattern=1 1;" parent="1" edge="1">
          <mxGeometry width="50" height="50" relative="1" as="geometry">
            <mxPoint x="1500" y="255" as="sourcePoint" />
            <mxPoint x="1500" y="315" as="targetPoint" />
          </mxGeometry>
        </mxCell>
        <mxCell id="qu2iDUBuxxzFe1pc3vkn-182" value="" style="endArrow=classic;html=1;rounded=0;exitX=1;exitY=0.75;exitDx=0;exitDy=0;strokeWidth=3;entryX=-0.01;entryY=0.475;entryDx=0;entryDy=0;entryPerimeter=0;" parent="1" source="qu2iDUBuxxzFe1pc3vkn-10" edge="1">
          <mxGeometry width="50" height="50" relative="1" as="geometry">
            <mxPoint x="842" y="364" as="sourcePoint" />
            <mxPoint x="899.5999999999999" y="365" as="targetPoint" />
            <Array as="points" />
          </mxGeometry>
        </mxCell>
        <mxCell id="qu2iDUBuxxzFe1pc3vkn-183" value="" style="endArrow=classic;html=1;rounded=0;strokeWidth=2;dashed=1;dashPattern=1 1;" parent="1" edge="1">
          <mxGeometry width="50" height="50" relative="1" as="geometry">
            <mxPoint x="870" y="296" as="sourcePoint" />
            <mxPoint x="870" y="326" as="targetPoint" />
          </mxGeometry>
        </mxCell>
        <mxCell id="qu2iDUBuxxzFe1pc3vkn-184" value="" style="endArrow=classic;html=1;rounded=0;strokeWidth=2;dashed=1;dashPattern=1 1;" parent="1" edge="1">
          <mxGeometry width="50" height="50" relative="1" as="geometry">
            <mxPoint x="870" y="365.5" as="sourcePoint" />
            <mxPoint x="830" y="420" as="targetPoint" />
            <Array as="points">
              <mxPoint x="870" y="420" />
            </Array>
          </mxGeometry>
        </mxCell>
        <mxCell id="qu2iDUBuxxzFe1pc3vkn-194" value="" style="group" parent="1" vertex="1" connectable="0">
          <mxGeometry x="890" y="80" width="60" height="660" as="geometry" />
        </mxCell>
        <mxCell id="qu2iDUBuxxzFe1pc3vkn-133" value="" style="endArrow=classic;html=1;rounded=0;fillColor=#f8cecc;strokeColor=#b85450;strokeWidth=2;" parent="qu2iDUBuxxzFe1pc3vkn-194" edge="1">
          <mxGeometry width="50" height="50" relative="1" as="geometry">
            <mxPoint x="29.430000000000064" y="660" as="sourcePoint" />
            <mxPoint x="29.430000000000064" y="618.75" as="targetPoint" />
          </mxGeometry>
        </mxCell>
        <mxCell id="qu2iDUBuxxzFe1pc3vkn-190" value="" style="group" parent="qu2iDUBuxxzFe1pc3vkn-194" vertex="1" connectable="0">
          <mxGeometry width="60" height="618.75" as="geometry" />
        </mxCell>
        <mxCell id="qu2iDUBuxxzFe1pc3vkn-191" value="EX" style="rounded=0;whiteSpace=wrap;html=1;fontStyle=1;fontSize=20;fillColor=#dae8fc;strokeColor=#6c8ebf;strokeWidth=2;" parent="qu2iDUBuxxzFe1pc3vkn-190" vertex="1">
          <mxGeometry x="10" width="40" height="618.75" as="geometry" />
        </mxCell>
        <mxCell id="qu2iDUBuxxzFe1pc3vkn-192" value="" style="triangle;whiteSpace=wrap;html=1;fillColor=#dae8fc;strokeColor=#6c8ebf;strokeWidth=2;" parent="qu2iDUBuxxzFe1pc3vkn-190" vertex="1">
          <mxGeometry x="10" y="536.25" width="20" height="41.25" as="geometry" />
        </mxCell>
        <mxCell id="qu2iDUBuxxzFe1pc3vkn-193" value="&lt;div&gt;flush&lt;/div&gt;" style="text;html=1;align=center;verticalAlign=middle;whiteSpace=wrap;rounded=0;strokeWidth=2;fontStyle=1" parent="qu2iDUBuxxzFe1pc3vkn-190" vertex="1">
          <mxGeometry y="587.8125" width="60" height="30.9375" as="geometry" />
        </mxCell>
        <mxCell id="qu2iDUBuxxzFe1pc3vkn-195" value="" style="endArrow=classic;html=1;rounded=0;strokeWidth=2;" parent="1" edge="1">
          <mxGeometry width="50" height="50" relative="1" as="geometry">
            <mxPoint x="640" y="450" as="sourcePoint" />
            <mxPoint x="899" y="690" as="targetPoint" />
            <Array as="points">
              <mxPoint x="640" y="690" />
            </Array>
          </mxGeometry>
        </mxCell>
        <mxCell id="qu2iDUBuxxzFe1pc3vkn-201" value="" style="endArrow=classic;html=1;rounded=0;entryX=-0.042;entryY=0.982;entryDx=0;entryDy=0;entryPerimeter=0;exitX=0.966;exitY=0.985;exitDx=0;exitDy=0;exitPerimeter=0;strokeWidth=2;" parent="1" source="qu2iDUBuxxzFe1pc3vkn-191" target="qu2iDUBuxxzFe1pc3vkn-199" edge="1">
          <mxGeometry width="50" height="50" relative="1" as="geometry">
            <mxPoint x="960" y="690" as="sourcePoint" />
            <mxPoint x="1100" y="620" as="targetPoint" />
          </mxGeometry>
        </mxCell>
        <mxCell id="qu2iDUBuxxzFe1pc3vkn-202" value="" style="endArrow=classic;html=1;rounded=0;entryX=0.565;entryY=0;entryDx=0;entryDy=0;entryPerimeter=0;fillColor=#f8cecc;strokeColor=#b85450;strokeWidth=2;" parent="1" edge="1">
          <mxGeometry width="50" height="50" relative="1" as="geometry">
            <mxPoint x="840" y="690" as="sourcePoint" />
            <mxPoint x="839.8000000000002" y="740" as="targetPoint" />
          </mxGeometry>
        </mxCell>
        <mxCell id="qu2iDUBuxxzFe1pc3vkn-203" value="" style="endArrow=classic;html=1;rounded=0;entryX=0.565;entryY=0;entryDx=0;entryDy=0;entryPerimeter=0;fillColor=#f8cecc;strokeColor=#b85450;strokeWidth=2;" parent="1" edge="1">
          <mxGeometry width="50" height="50" relative="1" as="geometry">
            <mxPoint x="1160" y="690" as="sourcePoint" />
            <mxPoint x="1160" y="740" as="targetPoint" />
          </mxGeometry>
        </mxCell>
        <mxCell id="qu2iDUBuxxzFe1pc3vkn-204" value="" style="endArrow=classic;html=1;rounded=0;entryX=0.87;entryY=-0.048;entryDx=0;entryDy=0;entryPerimeter=0;strokeWidth=2;fillColor=#d5e8d4;strokeColor=#82b366;dashed=1;dashPattern=1 1;" parent="1" edge="1">
          <mxGeometry width="50" height="50" relative="1" as="geometry">
            <mxPoint x="1120" y="640" as="sourcePoint" />
            <mxPoint x="1120.4" y="738.0799999999999" as="targetPoint" />
          </mxGeometry>
        </mxCell>
        <mxCell id="qu2iDUBuxxzFe1pc3vkn-205" value="" style="endArrow=classic;html=1;rounded=0;entryX=0.87;entryY=-0.048;entryDx=0;entryDy=0;entryPerimeter=0;strokeWidth=2;fillColor=#d5e8d4;strokeColor=#82b366;dashed=1;dashPattern=1 1;" parent="1" edge="1">
          <mxGeometry width="50" height="50" relative="1" as="geometry">
            <mxPoint x="1280" y="642" as="sourcePoint" />
            <mxPoint x="1280" y="740" as="targetPoint" />
          </mxGeometry>
        </mxCell>
        <mxCell id="qu2iDUBuxxzFe1pc3vkn-206" value="&lt;b&gt;&lt;font style=&quot;font-size: 20px;&quot;&gt;Hazard Handler&lt;/font&gt;&lt;/b&gt;" style="rounded=0;whiteSpace=wrap;html=1;strokeWidth=2;fillColor=#f8cecc;strokeColor=#b85450;" parent="1" vertex="1">
          <mxGeometry x="320" y="740" width="1030" height="40" as="geometry" />
        </mxCell>
        <mxCell id="qu2iDUBuxxzFe1pc3vkn-208" value="" style="endArrow=classic;html=1;rounded=0;entryX=1;entryY=0.5;entryDx=0;entryDy=0;strokeWidth=2;fillColor=#d5e8d4;strokeColor=#82b366;dashed=1;dashPattern=1 1;" parent="1" target="qu2iDUBuxxzFe1pc3vkn-206" edge="1">
          <mxGeometry width="50" height="50" relative="1" as="geometry">
            <mxPoint x="1640" y="640" as="sourcePoint" />
            <mxPoint x="1290" y="750" as="targetPoint" />
            <Array as="points">
              <mxPoint x="1640" y="760" />
            </Array>
          </mxGeometry>
        </mxCell>
        <mxCell id="qu2iDUBuxxzFe1pc3vkn-209" value="" style="endArrow=classic;html=1;rounded=0;exitX=0.982;exitY=0.641;exitDx=0;exitDy=0;exitPerimeter=0;dashed=1;dashPattern=1 1;strokeWidth=2;fillColor=#d5e8d4;strokeColor=#82b366;" parent="1" edge="1">
          <mxGeometry width="50" height="50" relative="1" as="geometry">
            <mxPoint x="1600" y="170" as="sourcePoint" />
            <mxPoint x="1600" y="60" as="targetPoint" />
            <Array as="points">
              <mxPoint x="1640" y="170" />
              <mxPoint x="1640" y="60" />
            </Array>
          </mxGeometry>
        </mxCell>
        <mxCell id="qu2iDUBuxxzFe1pc3vkn-211" value="" style="endArrow=classic;html=1;rounded=0;entryX=1;entryY=0.5;entryDx=0;entryDy=0;strokeWidth=2;dashed=1;dashPattern=1 1;fillColor=#f8cecc;strokeColor=#b85450;fontStyle=1" parent="1" edge="1">
          <mxGeometry width="50" height="50" relative="1" as="geometry">
            <mxPoint x="684.8" y="740" as="sourcePoint" />
            <mxPoint x="684.8" y="715" as="targetPoint" />
          </mxGeometry>
        </mxCell>
        <mxCell id="qu2iDUBuxxzFe1pc3vkn-212" value="" style="endArrow=classic;html=1;rounded=0;entryX=1;entryY=0.5;entryDx=0;entryDy=0;dashed=1;dashPattern=1 1;strokeWidth=2;fillColor=#f8cecc;strokeColor=#b85450;" parent="1" edge="1">
          <mxGeometry width="50" height="50" relative="1" as="geometry">
            <mxPoint x="990.2" y="740" as="sourcePoint" />
            <mxPoint x="990.2" y="696" as="targetPoint" />
          </mxGeometry>
        </mxCell>
        <mxCell id="qu2iDUBuxxzFe1pc3vkn-213" value="" style="endArrow=classic;html=1;rounded=0;exitX=0.5;exitY=0;exitDx=0;exitDy=0;strokeWidth=2;dashed=1;dashPattern=1 1;" parent="1" source="qu2iDUBuxxzFe1pc3vkn-64" edge="1">
          <mxGeometry width="50" height="50" relative="1" as="geometry">
            <mxPoint x="1570" y="420" as="sourcePoint" />
            <mxPoint x="1660" y="40" as="targetPoint" />
            <Array as="points">
              <mxPoint x="1700" y="399" />
              <mxPoint x="1700" y="40" />
            </Array>
          </mxGeometry>
        </mxCell>
        <mxCell id="qu2iDUBuxxzFe1pc3vkn-215" value="" style="endArrow=classic;html=1;rounded=0;exitX=0.24;exitY=-0.007;exitDx=0;exitDy=0;exitPerimeter=0;strokeWidth=2;dashed=1;dashPattern=1 1;" parent="1" source="qu2iDUBuxxzFe1pc3vkn-84" edge="1">
          <mxGeometry width="50" height="50" relative="1" as="geometry">
            <mxPoint x="1440" y="740" as="sourcePoint" />
            <mxPoint x="1340" y="710" as="targetPoint" />
            <Array as="points">
              <mxPoint x="1370" y="710" />
            </Array>
          </mxGeometry>
        </mxCell>
        <mxCell id="qu2iDUBuxxzFe1pc3vkn-217" style="edgeStyle=orthogonalEdgeStyle;rounded=0;orthogonalLoop=1;jettySize=auto;html=1;entryX=0.511;entryY=0.986;entryDx=0;entryDy=0;entryPerimeter=0;strokeWidth=2;dashed=1;dashPattern=1 1;" parent="1" edge="1">
          <mxGeometry relative="1" as="geometry">
            <mxPoint x="1600" y="400" as="sourcePoint" />
            <mxPoint x="1650" y="400" as="targetPoint" />
            <Array as="points">
              <mxPoint x="1620" y="400" />
              <mxPoint x="1620" y="400" />
            </Array>
          </mxGeometry>
        </mxCell>
        <mxCell id="qu2iDUBuxxzFe1pc3vkn-219" value="" style="group" parent="1" vertex="1" connectable="0">
          <mxGeometry x="1560" y="80" width="40" height="620" as="geometry" />
        </mxCell>
        <mxCell id="qu2iDUBuxxzFe1pc3vkn-218" value="WB" style="rounded=0;whiteSpace=wrap;html=1;fontStyle=1;fontSize=20;fillColor=#dae8fc;strokeColor=#6c8ebf;strokeWidth=2;" parent="qu2iDUBuxxzFe1pc3vkn-219" vertex="1">
          <mxGeometry width="40" height="620.0000000000001" as="geometry" />
        </mxCell>
        <mxCell id="qu2iDUBuxxzFe1pc3vkn-98" value="" style="triangle;whiteSpace=wrap;html=1;fillColor=#dae8fc;strokeColor=#6c8ebf;strokeWidth=2;" parent="qu2iDUBuxxzFe1pc3vkn-219" vertex="1">
          <mxGeometry y="537.3333333333334" width="20" height="41.333333333333336" as="geometry" />
        </mxCell>
        <mxCell id="qu2iDUBuxxzFe1pc3vkn-220" value="" style="group" parent="1" vertex="1" connectable="0">
          <mxGeometry x="570" y="80" width="60" height="620" as="geometry" />
        </mxCell>
        <mxCell id="qu2iDUBuxxzFe1pc3vkn-221" value="ID" style="rounded=0;whiteSpace=wrap;html=1;fontStyle=1;fontSize=20;fillColor=#dae8fc;strokeColor=#6c8ebf;strokeWidth=2;" parent="qu2iDUBuxxzFe1pc3vkn-220" vertex="1">
          <mxGeometry x="10" width="40" height="620" as="geometry" />
        </mxCell>
        <mxCell id="qu2iDUBuxxzFe1pc3vkn-222" value="" style="triangle;whiteSpace=wrap;html=1;fillColor=#dae8fc;strokeColor=#6c8ebf;strokeWidth=2;" parent="qu2iDUBuxxzFe1pc3vkn-220" vertex="1">
          <mxGeometry x="10" y="507.2727272727273" width="20" height="56.36363636363636" as="geometry" />
        </mxCell>
        <mxCell id="qu2iDUBuxxzFe1pc3vkn-223" value="stall&lt;div&gt;flush&lt;/div&gt;" style="text;html=1;align=center;verticalAlign=middle;whiteSpace=wrap;rounded=0;strokeWidth=2;fontStyle=1" parent="qu2iDUBuxxzFe1pc3vkn-220" vertex="1">
          <mxGeometry y="577.7272727272727" width="60" height="42.27272727272727" as="geometry" />
        </mxCell>
        <mxCell id="qu2iDUBuxxzFe1pc3vkn-224" value="" style="group" parent="1" vertex="1" connectable="0">
          <mxGeometry x="310" y="80" width="60" height="620" as="geometry" />
        </mxCell>
        <mxCell id="qu2iDUBuxxzFe1pc3vkn-225" value="IF/&lt;div&gt;PC&lt;/div&gt;" style="rounded=0;whiteSpace=wrap;html=1;fontStyle=1;fontSize=20;fillColor=#dae8fc;strokeColor=#6c8ebf;strokeWidth=2;" parent="qu2iDUBuxxzFe1pc3vkn-224" vertex="1">
          <mxGeometry x="10" width="40" height="620" as="geometry" />
        </mxCell>
        <mxCell id="qu2iDUBuxxzFe1pc3vkn-226" value="" style="triangle;whiteSpace=wrap;html=1;fillColor=#dae8fc;strokeColor=#6c8ebf;strokeWidth=2;" parent="qu2iDUBuxxzFe1pc3vkn-224" vertex="1">
          <mxGeometry x="10" y="507.2727272727273" width="20" height="56.36363636363636" as="geometry" />
        </mxCell>
        <mxCell id="qu2iDUBuxxzFe1pc3vkn-227" value="stall&lt;div&gt;flush&lt;/div&gt;" style="text;html=1;align=center;verticalAlign=middle;whiteSpace=wrap;rounded=0;strokeWidth=2;fontStyle=1" parent="qu2iDUBuxxzFe1pc3vkn-224" vertex="1">
          <mxGeometry y="577.7272727272727" width="60" height="42.27272727272727" as="geometry" />
        </mxCell>
        <mxCell id="qu2iDUBuxxzFe1pc3vkn-228" value="" style="endArrow=classic;html=1;rounded=0;exitX=0.982;exitY=0.641;exitDx=0;exitDy=0;exitPerimeter=0;dashed=1;dashPattern=1 1;strokeWidth=2;fillColor=#d5e8d4;strokeColor=#82b366;" parent="1" edge="1">
          <mxGeometry width="50" height="50" relative="1" as="geometry">
            <mxPoint x="939" y="129" as="sourcePoint" />
            <mxPoint x="920" y="34" as="targetPoint" />
            <Array as="points">
              <mxPoint x="981" y="129" />
              <mxPoint x="980" y="34" />
            </Array>
          </mxGeometry>
        </mxCell>
      </root>
    </mxGraphModel>
  </diagram>
</mxfile>
